<svg width="75" height="40" viewBox="0 0 75 40" fill="none" xmlns="http://www.w3.org/2000/svg">
<path d="M39.0644 23.6747C37.2104 32.8568 29.1147 39.4895 19.7278 39.4895C8.83356 39.4895 0 30.6485 0 19.7444C0 8.84102 8.83356 0 19.7278 0C24.9172 0 30.0077 2.11106 33.677 5.78403C37.3469 9.45582 31.768 15.0406 28.0975 11.3676C25.8483 9.11648 22.9093 7.89802 19.7278 7.89802C13.1897 7.89802 7.89077 13.2014 7.89077 19.7444C7.89077 26.288 13.1897 31.5915 19.7278 31.5915C24.7954 31.5915 29.2916 28.3651 30.9277 23.5891H19.7278C14.5576 23.5891 14.5576 15.7216 19.7278 15.7216H39.5645C40.6466 15.7216 42.9738 13.2729 44.7862 10.989C48.829 5.89421 53.5067 0 63.1296 0H71.021C76.2104 0 76.2104 7.89802 71.021 7.89802H63.1296C57.3874 7.89802 53.9998 12.0551 51.0882 15.7216H67.0747C72.2448 15.7216 72.2448 23.5891 67.0747 23.5891H50.9459C54.1772 27.6436 57.4535 31.5915 63.1296 31.5915C65.7548 31.5915 68.3917 31.5921 71.021 31.5921C76.2104 31.5921 76.2104 39.4895 71.021 39.4895C68.3917 39.4895 65.7548 39.4895 63.1296 39.4895C53.5067 39.4895 48.829 33.5959 44.7862 28.5005C43.3649 26.7094 41.5666 23.6747 39.0644 23.6747Z" fill="#EE2737"/>
</svg>
